<?xml version="1.0" encoding="utf-8"?>
<!-- Generator: Adobe Illustrator 26.0.2, SVG Export Plug-In . SVG Version: 6.00 Build 0)  -->
<svg version="1.1" id="Layer_1" xmlns="http://www.w3.org/2000/svg" xmlns:xlink="http://www.w3.org/1999/xlink" x="0px" y="0px"
	 viewBox="0 0 850 850" style="enable-background:new 0 0 850 850;" xml:space="preserve">
<style type="text/css">
	.st0{fill:#1A3662;}
	.st1{fill:#FFFFFF;}
	.st2{fill:#EC1C24;}
</style>
<path class="st0" d="M643.21,820H206.79C109.15,820,30,740.85,30,643.21V206.79C30,109.15,109.15,30,206.79,30h436.43
	C740.85,30,820,109.15,820,206.79v436.43C820,740.85,740.85,820,643.21,820z"/>
<g>
	<path class="st1" d="M198.42,378.96c-15.55,13.62-27.36,28.54-27.36,53.21c0,28.59,17.66,48.87,75.26,48.87h83.61
		c99.86,0,150.08,32.87,150.08,107.55c0,83.66-84.45,155.72-217.2,155.72c-105.21,0-177.77-43.2-177.77-120.72
		c0-38.57,23.45-74.89,62.98-101.81v-3.71c-21.85-14.34-38.42-38.42-38.42-73.82c0-37.35,25.03-67.17,47.27-83.57v-3.69
		 M408.79,599.99c0-41.65-30.15-55.9-86.58-55.9h-74.13c-16.36,0-36.74-1.85-55.81-6.72c-30.71,22.81-43.83,49.65-43.83,75.5
		c0,48.39,46.52,78.92,124.59,78.92C354.92,691.79,408.79,647.01,408.79,599.99z"/>
</g>
<path class="st2" d="M188.95,389.44L188.95,389.44c-43.82-29.61-72.33-77.76-72.33-132.15c0-90.02,78.13-163.01,174.51-163.01
	c5.39,0,174.51,0,174.51,0l0,175.39h-0.5c-6.76,84.24-82.09,150.64-174.01,150.64c-2.55,0-5.08-0.18-7.62-0.17
	C235.3,420.39,188.95,389.44,188.95,389.44z M388.15,256.81c0-50.93-43.7-92.21-97.63-92.21c-53.92,0-97.63,41.28-97.63,92.21
	c0,50.93,43.71,92.21,97.63,92.21C344.45,349.03,388.15,307.74,388.15,256.81z"/>
<g>
	<path class="st1" d="M783,566.29c-40.29,53.11-101.65,93.41-156.6,93.41c-116.3,0-184.98-94.32-184.98-192.31
		c0-72.35,31.14-132.79,92.49-179.49c48.54-37.55,103.48-52.2,139.2-52.2c41.21,0,71.43,12.82,85.17,24.73
		c12.82,10.07,14.65,16.48,14.65,26.56c0,21.98-22.89,41.21-32.97,41.21c-4.58,0-8.24-1.83-17.4-9.16
		c-28.39-25.64-59.53-38.46-92.49-38.46c-60.44,0-113.55,51.28-113.55,146.52c-0.92,127.29,86.08,169.42,139.2,169.42
		c38.46,0,69.6-10.07,111.72-50.37L783,566.29z"/>
</g>
</svg>
